[Header]
FileType HTR
DataType HTRS
FileVersion 1
NumSegments 22
NumFrames 6
DataFrameRate 24
EulerRotationOrder ZYX
CalibrationUnits mm
RotationUnits Degrees
GlobalAxisofGravity Y
BoneLengthAxis Y
ScaleFactor 1.0
[SegmentNames&Hierarchy]
reference	GLOBAL
Hips	reference
Spine	Hips
Spine1	Spine
Neck	Spine1
Head	Neck
LeftShoulder	Spine1
LeftArm	LeftShoulder
LeftForeArm	LeftArm
LeftHand	LeftForeArm
RightShoulder	Spine1
RightArm	RightShoulder
RightForeArm	RightArm
RightHand	RightForeArm
LeftUpLeg	Hips
LeftLeg	LeftUpLeg
LeftFoot	LeftLeg
LeftToeBase	LeftFoot
RightUpLeg	Hips
RightLeg	RightUpLeg
RightFoot	RightLeg
RightToeBase	RightFoot
[BasePosition]
reference	0	0	0	0	0	0	1
Hips	0	0	0	0	0	0	1
Spine	0	0	0	0	-0	90	1
Spine1	0	0	0	0	0	0	1
Neck	0	0	0	-7.352327771	-7.352327771	90	1
Head	0	0	0	0	-0	90	1
LeftShoulder	0	0	0	0	0	0	1
LeftArm	0	0	0	0	0	0	1
LeftForeArm	0	0	0	0	0	0	1
LeftHand	0	0	0	0	0	0	1
RightShoulder	0	0	0	0	-0	180	1
RightArm	0	0	0	0	-0	180	1
RightForeArm	0	0	0	0	-0	180	1
RightHand	0	0	0	0	-0	180	1
LeftUpLeg	0	0	0	0	-0	-90	1
LeftLeg	0	0	0	0	-0	-90	1
LeftFoot	0	0	0	66.57146043	-66.57146043	-90	1
LeftToeBase	0	0	0	0	-90	0	1
RightUpLeg	0	0	0	0	-0	-90	1
RightLeg	0	0	0	0	-0	-90	1
RightFoot	0	0	0	66.57146043	-66.57146043	-90	1
RightToeBase	0	0	0	0	-90	0	1
[reference]
58	0	0	0	0	-0	0	1.0
59	0	0	0	0	-0	0	1.0
60	0	0	0	0	-0	0	1.0
61	0	0	0	0	-0	0	1.0
62	0	0	0	0	-0	0	1.0
63	0	0	0	0	-0	0	1.0
[Hips]
58	1.279979229	8.442831993	-3.742165089	1.829370499	-192.936142	0.3026885986	1.0
59	1.276414275	8.38680172	-4.049891949	1.543305039	-192.4966736	-0.3504022658	1.0
60	1.272968173	8.373669624	-4.376320839	1.448114395	-192.1126862	-1.017341375	1.0
61	1.314517975	8.370017052	-4.75014019	1.028427124	-192.5235596	0.1216583252	1.0
62	1.415462971	8.399740219	-5.147603035	0.9785473943	-193.5166473	1.330976963	1.0
63	1.514375687	8.475197792	-5.559594154	0.6560081244	-193.8868103	1.920371175	1.0
[Spine]
58	0	0.7457100153	0	-3.693666458	-2.819720745	-91.33461761	1.0
59	0	0.7457100153	0	-3.482027054	-3.235381842	-92.49014282	1.0
60	0	0.7457100153	0	-3.756830931	-3.118186951	-93.16448975	1.0
61	0	0.7457100153	0	-4.090991497	-2.703649759	-92.03122711	1.0
62	0	0.7457100153	0	-4.673265457	-2.351818562	-91.19061279	1.0
63	0	0.7457100153	0	-4.946404934	-2.305809736	-90.29371643	1.0
[Spine1]
58	0	2.140589952	0	6.397134304	-0.9689042568	0.8859655261	1.0
59	0	2.140589952	0	6.807995319	-1.149726033	1.796889901	1.0
60	0	2.140589952	0	7.673015594	-1.138613224	2.041020155	1.0
61	0	2.140589952	0	8.490632057	-1.031118274	2.068190336	1.0
62	0	2.140589952	0	8.741801262	-0.9597653747	2.803957701	1.0
63	0	2.140589952	0	8.301415443	-0.9286502004	2.491975307	1.0
[Neck]
58	0	2.32246995	0	-9.557554245	12.38763046	-88.51997375	1.0
59	0	2.32246995	0	-10.78530216	11.88869953	-88.53279877	1.0
60	0	2.32246995	0	-11.57834148	11.87275028	-88.23408508	1.0
61	0	2.32246995	0	-11.61158085	12.14235592	-88.20259857	1.0
62	0	2.32246995	0	-10.72881699	13.00012779	-87.82061768	1.0
63	0	2.32246995	0	-8.216327667	13.65401936	-88.06173706	1.0
[Head]
58	0	1.409579992	0.1818799973	-4.206736565	5.563071251	-94.1512146	1.0
59	0	1.409579992	0.1818799973	-4.468085289	4.985920906	-93.70335388	1.0
60	0	1.409579992	0.1818799973	-4.96988821	4.942912102	-93.85632324	1.0
61	0	1.409579992	0.1818799973	-4.715803623	5.259543419	-94.1674118	1.0
62	0	1.409579992	0.1818799973	-4.089929581	6.341490746	-95.98304749	1.0
63	0	1.409579992	0.1818799973	-4.898097515	6.941669941	-95.40894318	1.0
[LeftShoulder]
58	0.3668199778	1.946700096	-0.02662999928	-18.86868668	-14.57447147	-1.710537195	1.0
59	0.3668199778	1.946700096	-0.02662999928	-19.90166855	-15.24467659	-0.6274759769	1.0
60	0.3668199778	1.946700096	-0.02662999928	-21.19826126	-16.09462929	-0.5969300866	1.0
61	0.3668199778	1.946700096	-0.02662999928	-21.74601555	-16.65378571	-0.8787785172	1.0
62	0.3668199778	1.946700096	-0.02662999928	-20.89481354	-16.26752281	-1.983137012	1.0
63	0.3668199778	1.946700096	-0.02662999928	-20.12742805	-15.41259384	-2.676770926	1.0
[LeftArm]
58	1.140689969	0	0	53.65619278	3.797316074	-68.6237793	1.0
59	1.140689969	0	0	56.47989273	1.273904204	-68.54089355	1.0
60	1.140689969	0	0	58.54888153	-0.1299970448	-68.27385712	1.0
61	1.140689969	0	0	57.67274475	0.5177094936	-69.35816193	1.0
62	1.140689969	0	0	56.08378601	2.475517035	-71.86178589	1.0
63	1.140689969	0	0	53.73399353	5.753192425	-75.0226593	1.0
[LeftForeArm]
58	2.749800205	0	0	-6.687932968	-44.5696106	7.515264988	1.0
59	2.749800205	0	0	-6.557648659	-50.93387604	8.652741432	1.0
60	2.749800205	0	0	-6.528439522	-54.38681793	8.937499046	1.0
61	2.749800205	0	0	-5.208847046	-53.76887131	6.729959965	1.0
62	2.749800205	0	0	-5.108795643	-48.45036697	6.105836868	1.0
63	2.749800205	0	0	-6.762813091	-40.69726563	5.790671349	1.0
[LeftHand]
58	2.295179844	0	0	-3.908132792	-9.350687981	3.688462496	1.0
59	2.295179844	0	0	-2.779958963	-11.41519165	3.474329472	1.0
60	2.295179844	0	0	-2.136182308	-12.09996414	1.950248599	1.0
61	2.295179844	0	0	-1.976649284	-12.92657757	1.616618633	1.0
62	2.295179844	0	0	-2.438895226	-13.57644749	0.6433424354	1.0
63	2.295179844	0	0	-4.773265839	-13.08987904	1.425540924	1.0
[RightShoulder]
58	-0.3601199985	1.946700096	-0.02662999928	-3.285088062	4.391209602	176.2841797	1.0
59	-0.3601199985	1.946700096	-0.02662999928	-2.986243963	4.342483521	175.8321838	1.0
60	-0.3601199985	1.946700096	-0.02662999928	-3.169914484	3.935647726	175.5440063	1.0
61	-0.3601199985	1.946700096	-0.02662999928	-3.355912447	3.925039768	175.7510376	1.0
62	-0.3601199985	1.946700096	-0.02662999928	-4.00672245	4.095741272	175.95755	1.0
63	-0.3601199985	1.946700096	-0.02662999928	-3.306760073	4.264675617	176.7781372	1.0
[RightArm]
58	-1.140689969	0	0	27.96995544	-8.742137909	-106.7127151	1.0
59	-1.140689969	0	0	24.45740509	-10.6085434	-107.7129669	1.0
60	-1.140689969	0	0	22.95151329	-11.4703474	-107.5068741	1.0
61	-1.140689969	0	0	24.90942574	-11.09253597	-106.5066681	1.0
62	-1.140689969	0	0	28.70721245	-10.58124352	-105.3200684	1.0
63	-1.140689969	0	0	32.07579422	-9.3663311	-104.5129471	1.0
[RightForeArm]
58	-2.749800205	0	0	5.728549004	13.40763569	186.0841827	1.0
59	-2.749800205	0	0	8.037735939	12.60904789	188.6716614	1.0
60	-2.749800205	0	0	8.696220398	9.545764923	189.7603302	1.0
61	-2.749800205	0	0	7.513055801	5.349200249	189.0931702	1.0
62	-2.749800205	0	0	6.466384888	2.07329011	188.3040924	1.0
63	-2.749800205	0	0	5.964383125	1.680493116	187.7280121	1.0
[RightHand]
58	-2.295179844	0	0	4.598234177	7.552618027	173.7173767	1.0
59	-2.295179844	0	0	6.719211578	7.205823898	174.2675323	1.0
60	-2.295179844	0	0	7.63058567	6.440329552	175.5425873	1.0
61	-2.295179844	0	0	6.939176083	4.0986619	175.8626709	1.0
62	-2.295179844	0	0	6.256568909	1.745684624	176.0963898	1.0
63	-2.295179844	0	0	5.825374603	0.863380909	176.8569336	1.0
[LeftUpLeg]
58	0.9094099998	0	0	13.23129463	9.982910156	88.91615295	1.0
59	0.9094099998	0	0	15.32447624	9.425748825	88.483078	1.0
60	0.9094099998	0	0	16.73872566	10.89997005	88.80497742	1.0
61	0.9094099998	0	0	18.51807594	11.41087627	90.52092743	1.0
62	0.9094099998	0	0	18.84233665	11.30068111	92.20697021	1.0
63	0.9094099998	0	0	16.99737167	12.83237457	93.9109726	1.0
[LeftLeg]
58	0	-4.498080254	0	2.869077206	-4.299904823	85.44359589	1.0
59	0	-4.498080254	0	3.207514763	-4.741823673	84.98579407	1.0
60	0	-4.498080254	0	6.120675087	-6.536326885	84.65556335	1.0
61	0	-4.498080254	0	9.292212486	-6.023601055	85.2077179	1.0
62	0	-4.498080254	0	14.49552917	-4.79120779	85.17185974	1.0
63	0	-4.498080254	0	23.52297974	-4.066543579	86.21453857	1.0
[LeftFoot]
58	0	-3.729400158	0	-73.50962067	110.2200241	-21.17807198	1.0
59	0	-3.729400158	0	-74.62661743	109.7843628	-20.21249008	1.0
60	0	-3.729400158	0	-69.31737518	104.9921188	-14.19256687	1.0
61	0	-3.729400158	0	-69.03616333	101.911644	-15.8941803	1.0
62	0	-3.729400158	0	-61.60780334	101.5419159	-14.25496769	1.0
63	0	-3.729400158	0	-38.84755707	97.61763	0.688690424	1.0
[LeftToeBase]
58	0	-0.5911099911	1.364109993	0	0	0	1.0
59	0	-0.5911099911	1.364109993	0	0	0	1.0
60	0	-0.5911099911	1.364109993	0	0	0	1.0
61	0	-0.5911099911	1.364109993	0	0	0	1.0
62	0	-0.5911099911	1.364109993	0	0	0	1.0
63	0	-0.5911099911	1.364109993	0	0	0	1.0
[RightUpLeg]
58	-0.9094099998	0	0	-22.48912239	-7.769790173	99.50138092	1.0
59	-0.9094099998	0	0	-21.08531952	-2.222515345	95.90322113	1.0
60	-0.9094099998	0	0	-21.14378929	-0.8193149567	94.7366333	1.0
61	-0.9094099998	0	0	-20.60568619	-3.887810946	97.53813934	1.0
62	-0.9094099998	0	0	-19.02888489	-6.998623371	100.0136871	1.0
63	-0.9094099998	0	0	-15.63768196	-8.661170959	99.96920776	1.0
[RightLeg]
58	0	-4.498080254	0	11.92766762	2.217874527	85.31958771	1.0
59	0	-4.498080254	0	3.118752241	-0.6001968384	87.93058777	1.0
60	0	-4.498080254	0	4.670178413	-5.613364697	87.06646729	1.0
61	0	-4.498080254	0	8.185789108	-7.407277584	85.93183136	1.0
62	0	-4.498080254	0	11.41207218	0.7530782223	86.57435608	1.0
63	0	-4.498080254	0	11.60489464	-1.242102146	87.00307465	1.0
[RightFoot]
58	0	-3.729400158	0	67.83841705	69.14122772	95.65568542	1.0
59	0	-3.729400158	0	68.23510742	68.83506775	96.68968201	1.0
60	0	-3.729400158	0	73.36967468	66.89822388	99.03556824	1.0
61	0	-3.729400158	0	72.87052155	69.5719986	96.9010849	1.0
62	0	-3.729400158	0	56.17402649	69.21408081	82.19326019	1.0
63	0	-3.729400158	0	64.14041138	69.4828186	92.63327026	1.0
[RightToeBase]
58	0	-0.5911099911	1.364109993	0	0	0	1.0
59	0	-0.5911099911	1.364109993	0	0	0	1.0
60	0	-0.5911099911	1.364109993	0	0	0	1.0
61	0	-0.5911099911	1.364109993	0	0	0	1.0
62	0	-0.5911099911	1.364109993	0	0	0	1.0
63	0	-0.5911099911	1.364109993	0	0	0	1.0
[EndOfFile]
